<?xml version="1.0" encoding="UTF-8"?>
<svg version="1.1" xmlns="http://www.w3.org/2000/svg" width="200" height="200">
<path d="M0 0 C66 0 132 0 200 0 C200 66 200 132 200 200 C134 200 68 200 0 200 C0 134 0 68 0 0 Z " fill="#141414" transform="translate(0,0)"/>
<path d="M0 0 C0.845625 0.495 1.69125 0.99 2.5625 1.5 C9.35989495 4.87049252 16.16662681 6.84812985 23.5625 8.5 C24.25647168 23.16979028 23.07370109 36.55873929 13.5625 48.5 C12.985 49.386875 12.4075 50.27375 11.8125 51.1875 C8.32708382 54.76973329 4.19521291 57.60123015 -0.4375 59.5 C-7.15815956 58.90260804 -12.15829309 54.36547941 -16.69921875 49.68359375 C-24.30243628 40.13258566 -26.8000376 29.39515193 -26.5625 17.5 C-26.55347656 16.62988281 -26.54445313 15.75976562 -26.53515625 14.86328125 C-26.51184619 12.7420658 -26.47598579 10.62099438 -26.4375 8.5 C-24.84421875 8.02820313 -24.84421875 8.02820313 -23.21875 7.546875 C-21.79113403 7.11634558 -20.36408537 6.68393216 -18.9375 6.25 C-18.20297607 6.02691162 -17.46845215 5.80382324 -16.71166992 5.57397461 C-12.83770088 4.36376233 -9.29699266 3.0726912 -5.75 1.0625 C-2.4375 -0.5 -2.4375 -0.5 0 0 Z " fill="#1B1414" transform="translate(50.4375,71.5)"/>
<path d="M0 0 C0.845625 0.495 1.69125 0.99 2.5625 1.5 C9.35989495 4.87049252 16.16662681 6.84812985 23.5625 8.5 C24.25647168 23.16979028 23.07370109 36.55873929 13.5625 48.5 C12.985 49.386875 12.4075 50.27375 11.8125 51.1875 C8.32708382 54.76973329 4.19521291 57.60123015 -0.4375 59.5 C-7.15815956 58.90260804 -12.15829309 54.36547941 -16.69921875 49.68359375 C-24.30243628 40.13258566 -26.8000376 29.39515193 -26.5625 17.5 C-26.55347656 16.62988281 -26.54445313 15.75976562 -26.53515625 14.86328125 C-26.51184619 12.7420658 -26.47598579 10.62099438 -26.4375 8.5 C-24.84421875 8.02820313 -24.84421875 8.02820313 -23.21875 7.546875 C-21.79113403 7.11634558 -20.36408537 6.68393216 -18.9375 6.25 C-18.20297607 6.02691162 -17.46845215 5.80382324 -16.71166992 5.57397461 C-12.83770088 4.36376233 -9.29699266 3.0726912 -5.75 1.0625 C-2.4375 -0.5 -2.4375 -0.5 0 0 Z M-8.0625 5.75 C-13.13033089 7.96332274 -18.1675437 9.8311805 -23.4375 11.5 C-24.04345574 25.21255389 -22.64534375 37.72981453 -13.4375 48.5 C-10.04486245 51.64961194 -6.69404051 54.62285308 -2.4375 56.5 C3.99376187 55.0446074 9.5352854 49.44068238 13.18359375 44.1484375 C14.41331802 41.96631549 15.52399971 39.77856604 16.5625 37.5 C16.975 36.613125 17.3875 35.72625 17.8125 34.8125 C19.54282442 29.47733304 19.6950704 24.18751164 19.625 18.625 C19.62048828 17.93664062 19.61597656 17.24828125 19.61132812 16.5390625 C19.59966336 14.85933665 19.58173271 13.17965625 19.5625 11.5 C16.4586135 10.35340673 13.35434294 9.20785685 10.25 8.0625 C9.36892578 7.73701172 8.48785156 7.41152344 7.58007812 7.07617188 C6.73251953 6.76357422 5.88496094 6.45097656 5.01171875 6.12890625 C4.23143311 5.84088135 3.45114746 5.55285645 2.6472168 5.25610352 C-2.06632425 3.54655478 -3.46126232 3.68122647 -8.0625 5.75 Z " fill="#BB272F" transform="translate(50.4375,71.5)"/>
<path d="M0 0 C0.33 0.33 0.66 0.66 1 1 C3.33944736 0.71269945 5.6739143 0.38063221 8 0 C8.33 1.98 8.66 3.96 9 6 C9.70125 5.01 10.4025 4.02 11.125 3 C13.32959535 0.30900395 13.64418661 0.04028076 17.3125 -0.375 C18.199375 -0.25125 19.08625 -0.1275 20 0 C19.33291016 0.68835938 19.33291016 0.68835938 18.65234375 1.390625 C18.08644531 2.00421875 17.52054688 2.6178125 16.9375 3.25 C16.36902344 3.85328125 15.80054688 4.4565625 15.21484375 5.078125 C13.79414586 6.90047866 13.79414586 6.90047866 14.15625 8.96875 C15.09771167 11.23523179 16.22502717 13.19234949 17.5625 15.25 C18.24505859 16.30960938 18.24505859 16.30960938 18.94140625 17.390625 C19.29074219 17.92171875 19.64007813 18.4528125 20 19 C17.875 19.4375 17.875 19.4375 15 19 C12.723853 16.87310854 10.8541278 14.4976567 9 12 C8.67 14.31 8.34 16.62 8 19 C4.93536601 19.16240455 1.87935726 19.28104814 -1.1875 19.375 C-2.05181641 19.42527344 -2.91613281 19.47554687 -3.80664062 19.52734375 C-10.07510766 19.67144644 -10.07510766 19.67144644 -12.70703125 17.76074219 C-15.06239005 15.06385637 -15.99525209 13.02658828 -16.625 9.5 C-16.01062748 6.0595139 -15.23379016 3.70280463 -12.83984375 1.09375 C-8.99958894 -1.18920403 -4.2926817 -0.5689964 0 0 Z " fill="#1E1E1D" transform="translate(142,81)"/>
<path d="M0 0 C2.05078125 0.03255208 4.1015625 0.06510417 6.15234375 0.09765625 C6.21421875 0.88140625 6.27609375 1.66515625 6.33984375 2.47265625 C6.60796875 3.33890625 6.87609375 4.20515625 7.15234375 5.09765625 C9.59523003 6.40833958 9.59523003 6.40833958 12.15234375 7.09765625 C13.15234375 8.09765625 13.15234375 8.09765625 13.27734375 11.09765625 C13.15234375 14.09765625 13.15234375 14.09765625 12.15234375 15.09765625 C10.4861726 15.13829457 8.8184628 15.14037725 7.15234375 15.09765625 C7.48234375 17.07765625 7.81234375 19.05765625 8.15234375 21.09765625 C9.80234375 20.43765625 11.45234375 19.77765625 13.15234375 19.09765625 C13.06500799 20.70282722 12.95682151 22.30687287 12.83984375 23.91015625 C12.78183594 24.80347656 12.72382812 25.69679688 12.6640625 26.6171875 C12.08920794 29.40369625 11.33165815 30.33901379 9.15234375 32.09765625 C8.16234375 31.76765625 7.17234375 31.43765625 6.15234375 31.09765625 C6.15234375 31.75765625 6.15234375 32.41765625 6.15234375 33.09765625 C4.83234375 32.76765625 3.51234375 32.43765625 2.15234375 32.09765625 C2.15234375 31.10765625 2.15234375 30.11765625 2.15234375 29.09765625 C1.49234375 29.09765625 0.83234375 29.09765625 0.15234375 29.09765625 C0.48234375 27.11765625 0.81234375 25.13765625 1.15234375 23.09765625 C2.14234375 22.76765625 3.13234375 22.43765625 4.15234375 22.09765625 C2.50234375 21.76765625 0.85234375 21.43765625 -0.84765625 21.09765625 C-0.84765625 23.40765625 -0.84765625 25.71765625 -0.84765625 28.09765625 C-3.15765625 28.09765625 -5.46765625 28.09765625 -7.84765625 28.09765625 C-7.84765625 25.78765625 -7.84765625 23.47765625 -7.84765625 21.09765625 C-5.86765625 20.76765625 -3.88765625 20.43765625 -1.84765625 20.09765625 C-1.51765625 17.78765625 -1.18765625 15.47765625 -0.84765625 13.09765625 C1.46234375 13.09765625 3.77234375 13.09765625 6.15234375 13.09765625 C5.49234375 11.44765625 4.83234375 9.79765625 4.15234375 8.09765625 C1.84234375 7.76765625 -0.46765625 7.43765625 -2.84765625 7.09765625 C-2.89019981 5.09810879 -2.88846408 3.09723989 -2.84765625 1.09765625 C-1.84765625 0.09765625 -1.84765625 0.09765625 0 0 Z " fill="#191514" transform="translate(51.84765625,85.90234375)"/>
<path d="M0 0 C3.66262449 0.81465246 5.13193418 2.40542239 7.16015625 5.48046875 C7.71934946 9.39482119 7.51472764 11.68268312 5.91015625 15.29296875 C3.08597627 18.82319372 1.17677699 19.33259664 -3.27734375 19.98046875 C-6.83984375 19.48046875 -6.83984375 19.48046875 -9.77734375 16.98046875 C-12.56346953 13.06508269 -12.58575278 10.17969566 -11.83984375 5.48046875 C-8.68765672 0.59966303 -5.54745549 -0.3426642 0 0 Z " fill="#F0F0F0" transform="translate(115.83984375,105.51953125)"/>
<path d="M0 0 C1.65 0 3.3 0 5 0 C7.01953125 2.1875 7.01953125 2.1875 8.8125 5 C9.41707031 5.928125 10.02164063 6.85625 10.64453125 7.8125 C11.09183594 8.534375 11.53914062 9.25625 12 10 C12.33 6.7 12.66 3.4 13 0 C14.32 0 15.64 0 17 0 C17 6.27 17 12.54 17 19 C12 18 12 18 9.98046875 15.71484375 C9.38878906 14.79832031 8.79710937 13.88179687 8.1875 12.9375 C7.58292969 12.01839844 6.97835937 11.09929687 6.35546875 10.15234375 C5.90816406 9.44207031 5.46085938 8.73179688 5 8 C4.67 11.63 4.34 15.26 4 19 C2.68 19 1.36 19 0 19 C0 12.73 0 6.46 0 0 Z " fill="#EBEBE9" transform="translate(134,106)"/>
<path d="M0 0 C1.98 0 3.96 0 6 0 C7.00605593 2.60197202 8.00502525 5.20629362 9 7.8125 C9.42925781 8.91948242 9.42925781 8.91948242 9.8671875 10.04882812 C10.13789062 10.76103516 10.40859375 11.47324219 10.6875 12.20703125 C10.93886719 12.8616333 11.19023438 13.51623535 11.44921875 14.19067383 C12 16 12 16 12 19 C10.68 19 9.36 19 8 19 C7.67 17.68 7.34 16.36 7 15 C4.36 15.33 1.72 15.66 -1 16 C-1.33 16.99 -1.66 17.98 -2 19 C-3.65 19 -5.3 19 -7 19 C-6.02241999 16.20776841 -5.04301077 13.41620228 -4.0625 10.625 C-3.78470703 9.8309375 -3.50691406 9.036875 -3.22070312 8.21875 C-2.95322266 7.45820312 -2.68574219 6.69765625 -2.41015625 5.9140625 C-2.16402588 5.2123291 -1.91789551 4.5105957 -1.66430664 3.78759766 C-1 2 -1 2 0 0 Z " fill="#E8E8E8" transform="translate(113,81)"/>
<path d="M0 0 C10.35294118 -0.3697479 10.35294118 -0.3697479 13.32421875 1.328125 C15 3 15 3 15.5625 5.9375 C15 9 15 9 12.875 11.375 C9.60790131 13.221621 7.69212837 13.3434538 4 13 C4 14.65 4 16.3 4 18 C2.68 18 1.36 18 0 18 C0 12.06 0 6.12 0 0 Z " fill="#F5F5F4" transform="translate(87,106)"/>
<path d="M0 0 C1.32 0 2.64 0 4 0 C4 2.31 4 4.62 4 7 C6.64 7 9.28 7 12 7 C12 4.69 12 2.38 12 0 C13.32 0 14.64 0 16 0 C16 6.27 16 12.54 16 19 C14.68 19 13.36 19 12 19 C12 16.36 12 13.72 12 11 C9.36 11 6.72 11 4 11 C4 13.64 4 16.28 4 19 C2.68 19 1.36 19 0 19 C0 12.73 0 6.46 0 0 Z " fill="#EEEEEE" transform="translate(87,81)"/>
<path d="M0 0 C1.32 0 2.64 0 4 0 C4.33 1.98 4.66 3.96 5 6 C5.70125 5.01 6.4025 4.02 7.125 3 C9.32959535 0.30900395 9.64418661 0.04028076 13.3125 -0.375 C14.199375 -0.25125 15.08625 -0.1275 16 0 C15.55527344 0.45890625 15.11054688 0.9178125 14.65234375 1.390625 C14.08644531 2.00421875 13.52054688 2.6178125 12.9375 3.25 C12.36902344 3.85328125 11.80054688 4.4565625 11.21484375 5.078125 C9.79414586 6.90047866 9.79414586 6.90047866 10.15625 8.96875 C11.09771167 11.23523179 12.22502717 13.19234949 13.5625 15.25 C14.01753906 15.95640625 14.47257813 16.6628125 14.94140625 17.390625 C15.29074219 17.92171875 15.64007813 18.4528125 16 19 C13.875 19.4375 13.875 19.4375 11 19 C8.723853 16.87310854 6.8541278 14.4976567 5 12 C4.67 14.31 4.34 16.62 4 19 C2.68 19 1.36 19 0 19 C0 12.73 0 6.46 0 0 Z " fill="#D1D1CF" transform="translate(146,81)"/>
<path d="M0 0 C0 1.32 0 2.64 0 4 C-0.95712891 4.09087891 -0.95712891 4.09087891 -1.93359375 4.18359375 C-2.75988281 4.26738281 -3.58617187 4.35117188 -4.4375 4.4375 C-5.67306641 4.55931641 -5.67306641 4.55931641 -6.93359375 4.68359375 C-8.98662025 4.78930815 -8.98662025 4.78930815 -10 6 C-10.16666667 9.5 -10.16666667 9.5 -10 13 C-8.41727399 14.58272601 -6.61965997 14.34735747 -4.4375 14.5625 C-3.61121094 14.64628906 -2.78492188 14.73007813 -1.93359375 14.81640625 C-1.29550781 14.87699219 -0.65742188 14.93757813 0 15 C0 16.32 0 17.64 0 19 C-9.48283251 19.89680027 -9.48283251 19.89680027 -12.84375 17.91015625 C-15.22968885 15.29533373 -16.01063021 12.94047082 -16.625 9.5 C-16.01063021 6.05952918 -15.22968885 3.70466627 -12.84375 1.08984375 C-8.98271078 -1.19242308 -4.31634966 -0.40820119 0 0 Z " fill="#DEDEDD" transform="translate(142,81)"/>
<path d="M0 0 C1.32 0 2.64 0 4 0 C4.33 1.32 4.66 2.64 5 4 C6.6396875 3.938125 6.6396875 3.938125 8.3125 3.875 C12 4 12 4 15 6 C15.6875 8.625 15.6875 8.625 16 11 C15.01 11 14.02 11 13 11 C13 11.66 13 12.32 13 13 C9.26770881 13.34718988 7.40042406 13.23503152 4.125 11.3125 C2 9 2 9 1.6875 6.25 C1.790625 5.5075 1.89375 4.765 2 4 C1.34 4 0.68 4 0 4 C0 2.68 0 1.36 0 0 Z " fill="#161516" transform="translate(38,112)"/>
<path d="M0 0 C0.66 0 1.32 0 2 0 C2 2.31 2 4.62 2 7 C4.31 7 6.62 7 9 7 C9 4.69 9 2.38 9 0 C10.98 0 12.96 0 15 0 C14.67 0.66 14.34 1.32 14 2 C13.01 2 12.02 2 11 2 C10.67 3.98 10.34 5.96 10 8 C10.66 8 11.32 8 12 8 C12 8.99 12 9.98 12 11 C13.32 11.33 14.64 11.66 16 12 C16 11.34 16 10.68 16 10 C16.99 10 17.98 10 19 10 C17.53376717 13.52836776 15.64314877 15.48067612 12.6875 17.875 C11.92824219 18.51179688 11.16898438 19.14859375 10.38671875 19.8046875 C8 21 8 21 5.20703125 20.1953125 C4.47871094 19.80085938 3.75039063 19.40640625 3 19 C3 18.67 3 18.34 3 18 C4.98 18 6.96 18 9 18 C9 17.34 9 16.68 9 16 C9.99 16 10.98 16 12 16 C10.88145414 12.27385847 10.88145414 12.27385847 8 10 C6.62657169 9.9310528 5.24997898 9.91532292 3.875 9.9375 C1.956875 9.9684375 1.956875 9.9684375 0 10 C0 6.7 0 3.4 0 0 Z " fill="#20120B" transform="translate(42,107)"/>
<path d="M0 0 C1.8125 1.125 1.8125 1.125 3 3 C3.42478586 7.07794425 3.31282587 8.53076119 1 12 C-2.5 12.375 -2.5 12.375 -6 12 C-8.31282587 8.53076119 -8.42478586 7.07794425 -8 3 C-5.90534242 -0.30735407 -3.75951639 -0.56392746 0 0 Z " fill="#232323" transform="translate(116,109)"/>
<path d="M0 0 C5.28 0 10.56 0 16 0 C16 0.99 16 1.98 16 3 C14.02 3 12.04 3 10 3 C10 7.95 10 12.9 10 18 C8.68 18 7.36 18 6 18 C6 13.05 6 8.1 6 3 C4.02 3 2.04 3 0 3 C0 2.01 0 1.02 0 0 Z " fill="#F5F5F5" transform="translate(154,106)"/>
<path d="M0 0 C2.31 0 4.62 0 7 0 C7 2.64 7 5.28 7 8 C4.69 8 2.38 8 0 8 C0 10.31 0 12.62 0 15 C-2.31 15 -4.62 15 -7 15 C-7 12.69 -7 10.38 -7 8 C-5.02 7.67 -3.04 7.34 -1 7 C-0.67 4.69 -0.34 2.38 0 0 Z " fill="#A72228" transform="translate(51,99)"/>
<path d="M0 0 C4.28379643 0.71260094 8.25093853 2.06921736 12.3125 3.5625 C12.95767578 3.79646484 13.60285156 4.03042969 14.26757812 4.27148438 C15.84621219 4.84447007 17.42327026 5.42179464 19 6 C19.25650582 16.81599532 19.45098474 26.33689068 14 36 C13.04744742 33.42810804 12.83666882 32.36881234 13.96875 29.8125 C15.2557673 26.30245281 15.19468099 23.41543301 15.125 19.6875 C15.10695313 18.43324219 15.08890625 17.17898437 15.0703125 15.88671875 C15.04710938 14.93410156 15.02390625 13.98148438 15 13 C15.66 12.67 16.32 12.34 17 12 C17.65555119 9.47266765 17.65555119 9.47266765 18 7 C17.11957031 6.80664062 16.23914063 6.61328125 15.33203125 6.4140625 C14.17058594 6.15367188 13.00914063 5.89328125 11.8125 5.625 C10.66394531 5.36976562 9.51539063 5.11453125 8.33203125 4.8515625 C5.41192652 4.10527548 2.76046611 3.19568212 0 2 C0 1.34 0 0.68 0 0 Z " fill="#310E0E" transform="translate(51,77)"/>
<path d="M0 0 C2.05078125 0.03255208 4.1015625 0.06510417 6.15234375 0.09765625 C6.48234375 1.74765625 6.81234375 3.39765625 7.15234375 5.09765625 C8.47234375 5.42765625 9.79234375 5.75765625 11.15234375 6.09765625 C11.15234375 8.40765625 11.15234375 10.71765625 11.15234375 13.09765625 C9.50234375 13.09765625 7.85234375 13.09765625 6.15234375 13.09765625 C5.49234375 11.44765625 4.83234375 9.79765625 4.15234375 8.09765625 C1.84234375 7.76765625 -0.46765625 7.43765625 -2.84765625 7.09765625 C-2.89019981 5.09810879 -2.88846408 3.09723989 -2.84765625 1.09765625 C-1.84765625 0.09765625 -1.84765625 0.09765625 0 0 Z " fill="#3D0D0D" transform="translate(51.84765625,85.90234375)"/>
<path d="M0 0 C1.98 0 3.96 0 6 0 C7.00605593 2.60197202 8.00502525 5.20629362 9 7.8125 C9.28617188 8.55048828 9.57234375 9.28847656 9.8671875 10.04882812 C10.13789062 10.76103516 10.40859375 11.47324219 10.6875 12.20703125 C11.06455078 13.18893433 11.06455078 13.18893433 11.44921875 14.19067383 C12 16 12 16 12 19 C10.68 19 9.36 19 8 19 C7.67 17.35 7.34 15.7 7 14 C5.02 14 3.04 14 1 14 C1.33 13.34 1.66 12.68 2 12 C3.32 12 4.64 12 6 12 C4.79271391 8.48797488 4.79271391 8.48797488 3 5 C0.93109581 3.95710245 0.93109581 3.95710245 -1 4 C-0.67 2.68 -0.34 1.36 0 0 Z " fill="#F1F1F1" transform="translate(113,81)"/>
<path d="M0 0 C0.515625 0.37125 1.03125 0.7425 1.5625 1.125 C1.875 3.875 1.875 3.875 1.5625 7.125 C-1.17236967 10.18161905 -2.63913153 11.06474578 -6.75 11.375 C-7.636875 11.2925 -8.52375 11.21 -9.4375 11.125 C-8.4475 10.465 -7.4575 9.805 -6.4375 9.125 C-7.4275 8.795 -8.4175 8.465 -9.4375 8.125 C-9.4375 5.815 -9.4375 3.505 -9.4375 1.125 C-3.0375 -1.09038462 -3.0375 -1.09038462 0 0 Z " fill="#EBEBEA" transform="translate(100.4375,107.875)"/>
<path d="M0 0 C1.32 0 2.64 0 4 0 C4 6.27 4 12.54 4 19 C-1 18 -1 18 -2.8125 16.0625 C-4 14 -4 14 -4 12 C-3.01 11.67 -2.02 11.34 -1 11 C-0.67 7.37 -0.34 3.74 0 0 Z " fill="#F3F3F1" transform="translate(147,106)"/>
<path d="M0 0 C1.32 0 2.64 0 4 0 C4 5.94 4 11.88 4 18 C2.68 18 1.36 18 0 18 C0 12.06 0 6.12 0 0 Z " fill="#F2F2F1" transform="translate(126,106)"/>
<path d="M0 0 C0.33 0 0.66 0 1 0 C1.33706931 9.83743016 1.02149686 18.50386702 -2 28 C-2.99 27.34 -3.98 26.68 -5 26 C-4.34 18.41 -3.68 10.82 -3 3 C-2.67 3 -2.34 3 -2 3 C-2 5.97 -2 8.94 -2 12 C-1.34 12 -0.68 12 0 12 C0 8.04 0 4.08 0 0 Z " fill="#AE2227" transform="translate(73,80)"/>
<path d="M0 0 C0.33 0 0.66 0 1 0 C1.02578125 1.22074219 1.0515625 2.44148438 1.078125 3.69921875 C1.50502353 17.71691042 3.14828337 29.61584038 12 41 C12.78375 42.010625 13.5675 43.02125 14.375 44.0625 C14.91125 44.701875 15.4475 45.34125 16 46 C10.01754849 43.4303564 5.32173198 38.20092915 2.8515625 32.21875 C2.34724449 30.48109984 1.88327943 28.73089452 1.47265625 26.96875 C1.18358859 25.00942257 1.18358859 25.00942257 0 24 C-0.08726223 22.21928754 -0.10699041 20.4351686 -0.09765625 18.65234375 C-0.09443359 17.57275391 -0.09121094 16.49316406 -0.08789062 15.38085938 C-0.07951172 14.24455078 -0.07113281 13.10824219 -0.0625 11.9375 C-0.05798828 10.79732422 -0.05347656 9.65714844 -0.04882812 8.48242188 C-0.03699747 5.65489649 -0.0205141 2.8274736 0 0 Z " fill="#4F0F11" transform="translate(23,80)"/>
<path d="M0 0 C-0.61875 0.45375 -1.2375 0.9075 -1.875 1.375 C-4.05919833 2.97108919 -4.05919833 2.97108919 -6 5 C-7.875 5.66796875 -7.875 5.66796875 -10 6.1875 C-11.051875 6.45626953 -11.051875 6.45626953 -12.125 6.73046875 C-14 7 -14 7 -16 6 C-15.835 6.94875 -15.67 7.8975 -15.5 8.875 C-14.81458208 13.5763877 -14.91416559 18.26003286 -15 23 C-15.33 23 -15.66 23 -16 23 C-16.84023188 18.64667264 -17.10770995 14.55557481 -17.0625 10.125 C-17.05347656 8.97257812 -17.04445313 7.82015625 -17.03515625 6.6328125 C-17.02355469 5.76398438 -17.01195313 4.89515625 -17 4 C-14.54453034 3.13670227 -12.08621957 2.28410564 -9.625 1.4375 C-8.57699219 1.0672168 -8.57699219 1.0672168 -7.5078125 0.68945312 C-2.2265625 -1.11328125 -2.2265625 -1.11328125 0 0 Z " fill="#390C0B" transform="translate(44,79)"/>
<path d="M0 0 C0.99 0 1.98 0 3 0 C3 6.27 3 12.54 3 19 C2.01 19 1.02 19 0 19 C0 12.73 0 6.46 0 0 Z " fill="#FAFAF9" transform="translate(146,81)"/>
<path d="M0 0 C0.33 0 0.66 0 1 0 C1.08811914 3.33316277 1.14076197 6.66602047 1.1875 10 C1.21263672 10.93457031 1.23777344 11.86914062 1.26367188 12.83203125 C1.32831653 18.99482204 0.534093 23.37480322 -2 29 C-2.54333984 30.23556641 -2.54333984 30.23556641 -3.09765625 31.49609375 C-3.41605469 32.13675781 -3.73445313 32.77742188 -4.0625 33.4375 C-4.38347656 34.09621094 -4.70445313 34.75492188 -5.03515625 35.43359375 C-6 37 -6 37 -8 38 C-7.71253906 37.31035156 -7.42507812 36.62070313 -7.12890625 35.91015625 C-5.91710877 32.78631844 -4.91419824 29.64240714 -3.9375 26.4375 C-3.59589844 25.32246094 -3.25429687 24.20742187 -2.90234375 23.05859375 C-1.38187626 17.90480133 -0.72690617 13.12061947 -0.4375 7.75 C-0.37272461 6.63238281 -0.37272461 6.63238281 -0.30664062 5.4921875 C-0.20103275 3.661651 -0.10005799 1.83084824 0 0 Z " fill="#3E0B0D" transform="translate(74,80)"/>
<path d="M0 0 C0.99 0 1.98 0 3 0 C1.53376717 3.52836776 -0.35685123 5.48067612 -3.3125 7.875 C-4.07175781 8.51179688 -4.83101562 9.14859375 -5.61328125 9.8046875 C-8 11 -8 11 -10.79296875 10.1953125 C-11.52128906 9.80085938 -12.24960937 9.40640625 -13 9 C-13 8.67 -13 8.34 -13 8 C-11.02 8 -9.04 8 -7 8 C-7 7.34 -7 6.68 -7 6 C-6.01 6 -5.02 6 -4 6 C-4.66 4.35 -5.32 2.7 -6 1 C-3.03 1.495 -3.03 1.495 0 2 C0 1.34 0 0.68 0 0 Z " fill="#350E11" transform="translate(58,117)"/>
<path d="M0 0 C1.65 0 3.3 0 5 0 C5 0.66 5 1.32 5 2 C4.01 2 3.02 2 2 2 C2.33 8.6 2.66 15.2 3 22 C2.34 22 1.68 22 1 22 C0.05862745 19.17588235 -0.11725382 17.47081968 -0.09765625 14.55078125 C-0.09443359 13.70322266 -0.09121094 12.85566406 -0.08789062 11.98242188 C-0.07951172 11.10134766 -0.07113281 10.22027344 -0.0625 9.3125 C-0.05798828 8.41982422 -0.05347656 7.52714844 -0.04882812 6.60742188 C-0.03704983 4.40488013 -0.02060164 2.20247401 0 0 Z " fill="#CA262D" transform="translate(24,80)"/>
<path d="M0 0 C1.65 0 3.3 0 5 0 C8 5.75 8 5.75 8 8 C5.125 8.1875 5.125 8.1875 2 8 C0 5 0 5 -1 3 C-0.67 2.01 -0.34 1.02 0 0 Z " fill="#DDDDDD" transform="translate(111,85)"/>
<path d="M0 0 C1.299375 0.2475 1.299375 0.2475 2.625 0.5 C1.68909496 1.6055189 0.75120142 2.70935453 -0.1875 3.8125 C-0.97060547 4.73482422 -0.97060547 4.73482422 -1.76953125 5.67578125 C-3.24672469 7.35424679 -4.77539131 8.93882034 -6.375 10.5 C-7.365 9.84 -8.355 9.18 -9.375 8.5 C-4.43845733 0.65754923 -4.43845733 0.65754923 0 0 Z " fill="#ECECEA" transform="translate(159.375,80.5)"/>
<path d="M0 0 C1.35439668 2.70879335 1.06501451 5.00933268 1 8 C-0.134375 8.12375 -1.26875 8.2475 -2.4375 8.375 C-4.2009375 8.684375 -4.2009375 8.684375 -6 9 C-6.33 9.66 -6.66 10.32 -7 11 C-8.32 10.67 -9.64 10.34 -11 10 C-10.113125 9.46375 -9.22625 8.9275 -8.3125 8.375 C-4.81711784 6.06688542 -2.55125342 3.30162207 0 0 Z " fill="#2F0E11" transform="translate(65,118)"/>
<path d="M0 0 C1.32 0.66 2.64 1.32 4 2 C4.28571429 10.57142857 4.28571429 10.57142857 2 14 C1.01 13.34 0.02 12.68 -1 12 C-0.67 11.01 -0.34 10.02 0 9 C0.06740865 7.43881572 0.08514456 5.8749748 0.0625 4.3125 C0.05347656 3.50425781 0.04445313 2.69601563 0.03515625 1.86328125 C0.02355469 1.24839844 0.01195313 0.63351563 0 0 Z " fill="#1D1D1D" transform="translate(122,109)"/>
<path d="M0 0 C1.98 0 3.96 0 6 0 C6 1.98 6 3.96 6 6 C4.02 6 2.04 6 0 6 C0 4.02 0 2.04 0 0 Z " fill="#D0242C" transform="translate(51,100)"/>
<path d="M0 0 C1.66611905 -0.042721 3.33382885 -0.04063832 5 0 C6 1 6 1 6.0625 3.5625 C6.041875 4.366875 6.02125 5.17125 6 6 C4.02 6 2.04 6 0 6 C0 4.02 0 2.04 0 0 Z " fill="#1F1F1F" transform="translate(91,109)"/>
<path d="M0 0 C2.25 0.125 2.25 0.125 5 1 C7.3125 4.0625 7.3125 4.0625 9 7 C6.75 7.3125 6.75 7.3125 4 7 C0 2.89189189 0 2.89189189 0 0 Z " fill="#EEEEED" transform="translate(153,93)"/>
<path d="M0 0 C2.64 0 5.28 0 8 0 C8.33 0.99 8.66 1.98 9 3 C5.52674819 4.1577506 2.63932552 4.06866652 -1 4 C-0.67 2.68 -0.34 1.36 0 0 Z " fill="#E8E8E8" transform="translate(110,121)"/>
<path d="M0 0 C1.65 0 3.3 0 5 0 C5 1.98 5 3.96 5 6 C3.35 6 1.7 6 0 6 C0 4.02 0 2.04 0 0 Z " fill="#B72830" transform="translate(58,93)"/>
<path d="M0 0 C2.26017813 2.15927732 4.14639748 4.42258616 6 6.9375 C6.495 7.60652344 6.99 8.27554688 7.5 8.96484375 C7.995 9.63644531 8.49 10.30804688 9 11 C9.99888978 12.33416528 10.99856996 13.66774039 12 15 C8.43846201 13.50800436 6.31596253 11.48557304 3.75 8.625 C3.04359375 7.85414062 2.3371875 7.08328125 1.609375 6.2890625 C0 4 0 4 0 0 Z " fill="#400C0B" transform="translate(27,111)"/>
<path d="M0 0 C0.66 0.33 1.32 0.66 2 1 C2.04254356 2.99954746 2.04080783 5.00041636 2 7 C1 8 1 8 -1.5625 8.0625 C-2.366875 8.041875 -3.17125 8.02125 -4 8 C-4 9.65 -4 11.3 -4 13 C-4.33 13 -4.66 13 -5 13 C-5 10.69 -5 8.38 -5 6 C-3.35 6 -1.7 6 0 6 C0 4.02 0 2.04 0 0 Z " fill="#3D0F0D" transform="translate(63,93)"/>
<path d="M0 0 C0.33 0 0.66 0 1 0 C1 2.31 1 4.62 1 7 C0.67 7 0.34 7 0 7 C-0.38133299 5.0085944 -0.71325582 3.00720923 -1 1 C-0.67 0.67 -0.34 0.34 0 0 Z M-6 7 C-3.125 6.8125 -3.125 6.8125 0 7 C0.66 7.99 1.32 8.98 2 10 C-0.70879335 11.35439668 -3.00933268 11.06501451 -6 11 C-5.01 10.34 -4.02 9.68 -3 9 C-3.99 8.34 -4.98 7.68 -6 7 Z " fill="#CBCBCA" transform="translate(97,108)"/>
<path d="M0 0 C0.99 0.33 1.98 0.66 3 1 C2.01 2.485 2.01 2.485 1 4 C0.60986284 5.9896995 0.26797351 7.99019869 0 10 C-1.32 9.67 -2.64 9.34 -4 9 C-3.52418802 7.68628013 -3.04424851 6.37405454 -2.5625 5.0625 C-2.29566406 4.33160156 -2.02882813 3.60070312 -1.75390625 2.84765625 C-1 1 -1 1 0 0 Z " fill="#1D1D1C" transform="translate(104,107)"/>
<path d="M0 0 C1.65 1.65 3.3 3.3 5 5 C3.515 7.475 3.515 7.475 2 10 C-0.09350689 6.5980513 -0.17942163 3.94727588 0 0 Z " fill="#1C1C1C" transform="translate(150,92)"/>
<path d="M0 0 C1.65 0 3.3 0 5 0 C5 1.65 5 3.3 5 5 C3.35 5 1.7 5 0 5 C0 3.35 0 1.7 0 0 Z " fill="#C22C36" transform="translate(51,87)"/>
<path d="M0 0 C0.99 0 1.98 0 3 0 C3 3.63 3 7.26 3 11 C2.34 11 1.68 11 1 11 C0.67 7.37 0.34 3.74 0 0 Z " fill="#CD262E" transform="translate(70,81)"/>
<path d="M0 0 C1.32 0.66 2.64 1.32 4 2 C3.67 2.99 3.34 3.98 3 5 C2.4225 4.773125 1.845 4.54625 1.25 4.3125 C-1.12172477 3.73494807 -1.12172477 3.73494807 -3.25 5.4375 C-4.11625 6.2109375 -4.11625 6.2109375 -5 7 C-3.70700306 4.11562221 -2.34058637 2.12780579 0 0 Z " fill="#252524" transform="translate(160,83)"/>
<path d="M0 0 C0.99 0 1.98 0 3 0 C3 2.64 3 5.28 3 8 C2.01 7.67 1.02 7.34 0 7 C0 4.69 0 2.38 0 0 Z " fill="#F9F9F9" transform="translate(100,81)"/>
<path d="M0 0 C-1 2 -1 2 -3.3125 3.1875 C-6.11989571 4.03624754 -7.301935 3.99928333 -10 3 C-6.68152292 -0.06320961 -4.44849969 -0.3033068 0 0 Z " fill="#300C0D" transform="translate(44,73)"/>
<path d="M0 0 C0.66 0.33 1.32 0.66 2 1 C2.625 4.0625 2.625 4.0625 3 7 C1.68 7 0.36 7 -1 7 C-0.67 4.69 -0.34 2.38 0 0 Z " fill="#303030" transform="translate(115,85)"/>
<path d="M0 0 C0.33 0.66 0.66 1.32 1 2 C-0.4375 4.625 -0.4375 4.625 -2 7 C-2.99 6.67 -3.98 6.34 -5 6 C-3.35 4.02 -1.7 2.04 0 0 Z " fill="#3F0F11" transform="translate(65,118)"/>
<path d="M0 0 C1.98 0 3.96 0 6 0 C5.67 0.66 5.34 1.32 5 2 C4.01 2 3.02 2 2 2 C1.67 3.65 1.34 5.3 1 7 C0.67 7 0.34 7 0 7 C0 4.69 0 2.38 0 0 Z " fill="#2E0B0E" transform="translate(51,107)"/>
<path d="M0 0 C1.98 0 3.96 0 6 0 C6.33 0.99 6.66 1.98 7 3 C5.35 3.33 3.7 3.66 2 4 C2 3.34 2 2.68 2 2 C1.34 1.34 0.68 0.68 0 0 Z " fill="#E2E2E2" transform="translate(112,121)"/>
<path d="M0 0 C0.33 0 0.66 0 1 0 C1.33 2.64 1.66 5.28 2 8 C1.34 8 0.68 8 0 8 C-0.33 8.99 -0.66 9.98 -1 11 C-1.33 9.35 -1.66 7.7 -2 6 C-1.34 6 -0.68 6 0 6 C0 4.02 0 2.04 0 0 Z " fill="#AA2429" transform="translate(27,96)"/>
<path d="M0 0 C1.98 0 3.96 0 6 0 C6 0.99 6 1.98 6 3 C4.02 3 2.04 3 0 3 C0 2.01 0 1.02 0 0 Z " fill="#F8F8F6" transform="translate(135,97)"/>
</svg>
